# File created by Blade
# Date/Time:  Tue Sep 28 14:35:47 2010
#---------------------------------------------------------
:version 1.10
:name HOM
:units
  mass 1.0
  length 1.000000
  angle deg
:documentation
     Acclaim Skeleton File
:root
   axis xyz
   order TX TY TZ RX RY RZ
   position 0.000000 0.000000 0.000000
   orientation 0 0 0
:bonedata
   begin
      id 1
      name LeftUpLeg_dum
      direction 1.000000 0.000000 0.000000
      length 3.677894
      axis 0.0 0.0 0.0 xyz
   end
   begin
      id 2
      name RightUpLeg_dum
      direction -1.000000 0.000000 0.000000
      length 3.677894
      axis 0.0 0.0 0.0 xyz
   end
   begin
      id 3
      name Spine_dum
      direction 0.000000 1.000000 0.000000
      length 0.039370
      axis 0.0 0.0 0.0 xyz
   end
   begin
      id 4
      name LeftUpLeg
      direction 0.000000 -1.000000 0.000000
      length 18.389491
      axis 0.0 0.0 0.0 xyz
      dof rx ry rz
   end
   begin
      id 5
      name LeftLeg
      direction 0.000000 -1.000000 0.000000
      length 16.918313
      axis 0.0 0.0 0.0 xyz
      dof rx ry rz
   end
   begin
      id 6
      name LeftFoot
      direction 0.000000 -0.258819 0.965926
      length 6.436326
      axis 15.0 0.0 0.0 xyz
      dof rx ry rz
   end
   begin
      id 7
      name LeftToeBase
      direction 0.000000 0.000000 1.000000
      length 2.952750
      axis 0.0 0.0 0.0 xyz
      dof rx ry rz
   end
   begin
      id 8
      name RightUpLeg
      direction 0.000000 -1.000000 0.000000
      length 18.389491
      axis 0.0 0.0 0.0 xyz
      dof rx ry rz
   end
   begin
      id 9
      name RightLeg
      direction 0.000000 -1.000000 0.000000
      length 16.918313
      axis 0.0 0.0 0.0 xyz
      dof rx ry rz
   end
   begin
      id 10
      name RightFoot
      direction 0.000000 -0.258819 0.965926
      length 6.436326
      axis 15.0 0.0 0.0 xyz
      dof rx ry rz
   end
   begin
      id 11
      name RightToeBase
      direction 0.000000 0.000000 1.000000
      length 2.952750
      axis 0.0 0.0 0.0 xyz
      dof rx ry rz
   end
   begin
      id 12
      name Spine
      direction 0.000000 1.000000 0.000000
      length 9.194745
      axis 0.0 0.0 0.0 xyz
      dof rx ry rz
   end
   begin
      id 13
      name Spine1
      direction 0.000000 1.000000 0.000000
      length 0.000000
      axis 0.0 0.0 0.0 xyz
      dof rx ry rz
   end
   begin
      id 14
      name Spine1_dum1
      direction 0.000000 1.000000 0.000000
      length 9.194745
      axis 0.0 0.0 0.0 xyz
   end
   begin
      id 15
      name Spine1_dum2
      direction 0.000000 1.000000 0.000000
      length 9.194745
      axis 0.0 0.0 0.0 xyz
   end
   begin
      id 16
      name Spine1_dum3
      direction 0.000000 1.000000 0.000000
      length 9.194745
      axis 0.0 0.0 0.0 xyz
   end
   begin
      id 17
      name Neck
      direction 0.000000 1.000000 0.000000
      length 4.229598
      axis 0.0 0.0 0.0 xyz
      dof rx ry rz
   end
   begin
      id 18
      name Head
      direction 0.000000 1.000000 0.000000
      length 4.527550
      axis 0.0 0.0 0.0 xyz
      dof rx ry rz
   end
   begin
      id 19
      name LeftShoulder
      direction 1.000000 -0.000004 0.000000
      length 5.516839
      axis 0.0 0.0 -90.0 xyz
      dof rx ry rz
   end
   begin
      id 20
      name LeftArm
      direction 1.000000 -0.000004 0.000000
      length 11.033679
      axis 0.0 0.0 -90.0 xyz
      dof rx ry rz
   end
   begin
      id 21
      name LeftForeArm
      direction 1.000000 -0.000004 0.000000
      length 10.114232
      axis 0.0 0.0 -90.0 xyz
      dof rx ry rz
   end
   begin
      id 22
      name LeftHand
      direction 0.000000 0.000000 0.000000
      length 0.000000
      axis 0.0 0.0 -90.0 xyz
      dof rx ry rz
   end
   begin
      id 23
      name LeftHand_dum1
      direction 0.000000 0.000000 0.000000
      length 0.000000
      axis 0.0 0.0 -90.0 xyz
   end
   begin
      id 24
      name LeftHand_dum2
      direction 1.000000 -0.000004 0.000000
      length 3.937000
      axis 0.0 0.0 -90.0 xyz
   end
   begin
      id 25
      name LeftHandThumb
      direction 0.000000 0.000000 1.000000
      length 3.937000
      axis 0.0 0.0 -90.0 xyz
      dof rx ry rz
   end
   begin
      id 26
      name RightShoulder
      direction -1.000000 -0.000004 0.000000
      length 5.516839
      axis 0.0 0.0 90.0 xyz
      dof rx ry rz
   end
   begin
      id 27
      name RightArm
      direction -1.000000 -0.000004 0.000000
      length 11.033679
      axis 0.0 0.0 90.0 xyz
      dof rx ry rz
   end
   begin
      id 28
      name RightForeArm
      direction -1.000000 -0.000004 0.000000
      length 10.114232
      axis 0.0 0.0 90.0 xyz
      dof rx ry rz
   end
   begin
      id 29
      name RightHand
      direction 0.000000 0.000000 0.000000
      length 0.000000
      axis 0.0 0.0 90.0 xyz
      dof rx ry rz
   end
   begin
      id 30
      name RightHand_dum1
      direction 0.000000 0.000000 0.000000
      length 0.000000
      axis 0.0 0.0 90.0 xyz
   end
   begin
      id 31
      name RightHand_dum2
      direction -1.000000 -0.000004 0.000000
      length 5.393690
      axis 0.0 0.0 90.0 xyz
   end
   begin
      id 32
      name RightHandThumb
      direction 0.000000 0.000000 1.000000
      length 3.937000
      axis 0.0 0.0 90.0 xyz
      dof rx ry rz
   end
:hierarchy
   begin
      root LeftUpLeg_dum RightUpLeg_dum Spine_dum
      LeftUpLeg_dum LeftUpLeg
      RightUpLeg_dum RightUpLeg
      Spine_dum Spine
      LeftUpLeg LeftLeg
      LeftLeg LeftFoot
      LeftFoot LeftToeBase
      RightUpLeg RightLeg
      RightLeg RightFoot
      RightFoot RightToeBase
      Spine Spine1
      Spine1 Spine1_dum1 Spine1_dum2 Spine1_dum3
      Spine1_dum1 Neck
      Spine1_dum2 LeftShoulder
      Spine1_dum3 RightShoulder
      Neck Head
      LeftShoulder LeftArm
      LeftArm LeftForeArm
      LeftForeArm LeftHand
      LeftHand LeftHand_dum1 LeftHand_dum2
      LeftHand_dum1 LeftHandThumb
      RightShoulder RightArm
      RightArm RightForeArm
      RightForeArm RightHand
      RightHand RightHand_dum1 RightHand_dum2
      RightHand_dum1 RightHandThumb
   end

# File created by Blade
# Date/Time:  Tue Sep 28 14:35:42 2010
# Frame Rate: 200.000 fps
#------------------------------------------------------
:FULLY-SPECIFIED
:DEGREES
842
root  3.067519 37.713233 52.113909 6.735848 -0.910778 1.016620
LeftUpLeg  -16.286588 7.443023 -5.963071
LeftLeg  18.570859 -0.000000 0.000000
LeftFoot  2.719664 12.282569 9.822077
LeftToeBase  -8.374546 0.000000 -0.000000
RightUpLeg  -16.893022 -15.155243 -4.417997
RightLeg  60.433716 -0.000000 -0.000000
RightFoot  24.688394 -6.654485 -18.107439
RightToeBase  -10.456143 0.000000 -0.000000
Spine  -15.020707 -2.398636 -3.589956
Spine1  16.248559 0.033588 2.306133
Neck  14.089719 2.353135 -3.598424
Head  -7.883990 2.461627 1.958822
LeftShoulder  -6.727171 -10.832379 -27.085278
LeftArm  0.958261 43.045332 -37.020147
LeftForeArm  26.356048 -0.000000 0.000000
LeftHand  3.380474 -6.381886 -2.057468
LeftHandThumb  0.000000 -0.000000 0.000000
RightShoulder  1.684651 8.231361 22.925888
RightArm  0.218479 -44.275191 40.684429
RightForeArm  31.251903 -0.000000 0.000000
RightHand  6.528783 9.617043 0.845484
RightHandThumb  0.000000 -0.000000 0.000000
843
root  3.095558 37.727156 52.299244 6.685094 -0.738180 0.950249
LeftUpLeg  -15.892517 7.453539 -5.891016
LeftLeg  18.473639 -0.000000 0.000000
LeftFoot  2.520514 12.081319 10.072854
LeftToeBase  -8.111132 0.000000 -0.000000
RightUpLeg  -17.413454 -15.335608 -4.248028
RightLeg  60.625813 -0.000000 -0.000000
RightFoot  24.248054 -6.661291 -18.181678
RightToeBase  -9.950539 0.000000 -0.000000
Spine  -14.977763 -2.514002 -3.506684
Spine1  16.297432 -0.106270 2.400771
Neck  14.034293 2.295132 -3.619719
Head  -7.908338 2.374346 2.012511
LeftShoulder  -6.611753 -10.947725 -27.055448
LeftArm  1.156214 43.035565 -36.809248
LeftForeArm  26.588826 -0.000000 0.000000
LeftHand  3.232037 -7.117697 -2.212191
LeftHandThumb  0.000000 -0.000000 0.000000
RightShoulder  1.671017 8.363971 22.920404
RightArm  0.071875 -44.518639 40.694716
RightForeArm  31.026182 -0.000000 0.000000
RightHand  6.381451 10.704085 0.965046
RightHandThumb  0.000000 -0.000000 0.000000
844
root  3.123999 37.737529 52.485627 6.630428 -0.551322 0.882527
LeftUpLeg  -15.497021 7.584602 -5.837618
LeftLeg  18.371696 -0.000000 0.000000
LeftFoot  2.317980 11.928422 9.873364
LeftToeBase  -8.545797 0.000000 -0.000000
RightUpLeg  -17.933705 -15.444549 -4.061550
RightLeg  60.825505 -0.000000 -0.000000
RightFoot  23.879254 -6.680628 -18.352759
RightToeBase  -10.861864 0.000000 -0.000000
Spine  -14.956074 -2.630668 -3.410827
Spine1  16.332582 -0.251431 2.506091
Neck  14.016201 2.422183 -3.686071
Head  -7.854354 2.387884 1.930411
LeftShoulder  -6.536613 -10.971251 -27.026215
LeftArm  1.383830 42.954486 -36.570883
LeftForeArm  26.841655 -0.000000 0.000000
LeftHand  3.612582 -6.581233 -1.971371
LeftHandThumb  0.000000 -0.000000 0.000000
RightShoulder  1.593895 8.283117 22.910404
RightArm  0.058551 -44.433554 40.632370
RightForeArm  30.842417 -0.000000 0.000000
RightHand  6.527709 10.048283 0.916604
RightHandThumb  0.000000 -0.000000 0.000000
845
root  3.150732 37.749890 52.671087 6.583376 -0.373624 0.805523
LeftUpLeg  -15.090975 7.659142 -5.753057
LeftLeg  18.235776 -0.000000 0.000000
LeftFoot  2.109956 11.722093 9.837031
LeftToeBase  -8.702997 0.000000 -0.000000
RightUpLeg  -18.443976 -15.586734 -3.860901
RightLeg  60.949068 -0.000000 -0.000000
RightFoot  23.411753 -6.715088 -18.390072
RightToeBase  -10.866336 0.000000 -0.000000
Spine  -14.931025 -2.749039 -3.313708
Spine1  16.368902 -0.398594 2.615275
Neck  13.994478 2.510344 -3.763455
Head  -7.844664 2.352870 1.926945
LeftShoulder  -6.469795 -10.952592 -27.007328
LeftArm  1.629409 42.834276 -36.330495
LeftForeArm  27.141679 -0.000000 0.000000
LeftHand  3.722095 -6.483436 -1.746596
LeftHandThumb  0.000000 -0.000000 0.000000
RightShoulder  1.526829 8.263239 22.902190
RightArm  -0.009628 -44.430415 40.596703
RightForeArm  30.670145 -0.000000 0.000000
RightHand  6.530759 9.868595 0.927747
RightHandThumb  0.000000 -0.000000 0.000000
846
root  3.176027 37.760853 52.853495 6.537655 -0.211813 0.721092
LeftUpLeg  -14.703393 7.740606 -5.662344
LeftLeg  18.126988 -0.000000 0.000000
LeftFoot  1.900000 11.535991 9.841716
LeftToeBase  -8.744556 0.000000 -0.000000
RightUpLeg  -18.952589 -15.737572 -3.657941
RightLeg  61.023850 -0.000000 -0.000000
RightFoot  22.939250 -6.689808 -18.559306
RightToeBase  -11.169465 0.000000 -0.000000
Spine  -14.896503 -2.862485 -3.221366
Spine1  16.408450 -0.539288 2.725920
Neck  13.963563 2.546621 -3.816023
Head  -7.845124 2.327166 1.923363
LeftShoulder  -6.372322 -11.045213 -26.983216
LeftArm  1.847005 42.787788 -36.095156
LeftForeArm  27.352738 -0.000000 0.000000
LeftHand  3.833412 -6.514163 -1.772575
LeftHandThumb  0.000000 -0.000000 0.000000
RightShoulder  1.481628 8.278248 22.902380
RightArm  -0.105655 -44.482141 40.579779
RightForeArm  30.501540 -0.000000 0.000000
RightHand  6.476022 10.114160 0.946412
RightHandThumb  0.000000 -0.000000 0.000000
